<svg width="46" height="46" viewBox="0 0 46 46" fill="none" xmlns="http://www.w3.org/2000/svg">
<g clip-path="url(#clip0_178_85430)">
<path d="M41.6835 9.58498C42.1377 8.96191 42.4067 8.19555 42.4067 7.36719C42.4067 5.2865 40.714 3.59375 38.6333 3.59375C37.8049 3.59375 37.0385 3.86274 36.4155 4.31699C32.4921 1.49087 27.8699 0 23 0C18.2227 0 13.6417 1.45116 9.75191 4.19651C9.34653 4.48266 9.24986 5.0432 9.53602 5.44866C9.82217 5.85404 10.3828 5.95071 10.7882 5.66456C13.3864 3.83067 16.3201 2.62398 19.4148 2.0983C19.0546 2.55596 18.6927 3.1068 18.3356 3.7702C17.2456 5.79519 16.3461 8.58385 15.7191 11.8703C14.0695 11.9889 12.7106 13.1716 12.3274 14.7344H3.4686C3.99077 13.5018 4.63154 12.3152 5.38784 11.1898C5.66456 10.7779 5.55495 10.2197 5.14311 9.94301C4.73126 9.6662 4.17306 9.77581 3.89634 10.1877C1.3473 13.9812 0 18.4117 0 23C0 27.8682 1.49096 32.4915 4.31672 36.4154C3.86265 37.0384 3.59375 37.8046 3.59375 38.6328C3.59375 40.7135 5.2865 42.4062 7.36719 42.4062C8.19546 42.4062 8.96173 42.1373 9.58471 41.6832C13.5084 44.5091 18.1314 46 23 46C29.1435 46 34.9193 43.6076 39.2635 39.2634C43.6076 34.9194 46 29.1435 46 23C46 18.1306 44.5093 13.5085 41.6835 9.58498ZM43.1927 29.4688H33.6121C33.3044 28.2141 32.3678 27.2046 31.1568 26.7937C31.2277 25.5455 31.2656 24.2738 31.2656 23C31.2656 20.7785 31.158 18.6048 30.9505 16.5313H43.2039C43.864 18.5973 44.2031 20.7705 44.2031 23C44.2031 25.2551 43.8479 27.4285 43.1927 29.4688ZM23 44.2031C21.4947 44.2031 19.8659 42.0128 18.6429 38.3441C17.9575 36.2876 17.4273 33.8854 17.0694 31.2657H26.283C26.5707 32.4385 27.4075 33.3977 28.5047 33.8535C27.1379 40.9947 24.7812 44.2031 23 44.2031ZM7.36719 34.8594C6.7664 34.8594 6.19832 35.0012 5.69367 35.2521C4.80026 33.9944 4.05501 32.6598 3.46348 31.2656H15.2578C15.6312 34.0927 16.1978 36.691 16.9382 38.9122C17.6502 41.0482 18.4792 42.719 19.4027 43.9013C16.2906 43.3735 13.3541 42.1577 10.7479 40.3064C10.9988 39.8017 11.1406 39.2336 11.1406 38.6328C11.1406 36.5521 9.44788 34.8594 7.36719 34.8594ZM16.5312 23C16.5312 21.7741 16.5672 20.5509 16.6346 19.3504C18.1147 19.0951 19.3021 17.9755 19.6563 16.5312H29.145C29.3581 18.5969 29.4688 20.7718 29.4688 23C29.4688 24.2219 29.433 25.4414 29.366 26.6387C27.8573 26.8731 26.6421 28.0046 26.283 29.4688H16.8549C16.642 27.4032 16.5312 25.2283 16.5312 23ZM29.9475 32.3438C28.8576 32.3438 27.971 31.4571 27.971 30.3672C27.971 29.2773 28.8576 28.3906 29.9475 28.3906C31.0374 28.3906 31.9241 29.2773 31.9241 30.3672C31.9241 31.4571 31.0374 32.3438 29.9475 32.3438ZM29.0618 7.08777C28.3497 4.95174 27.5207 3.28082 26.5971 2.09848C29.7097 2.62631 32.6463 3.8419 35.2525 5.69358C35.0017 6.19832 34.8598 6.7664 34.8598 7.36719C34.8598 9.44788 36.5526 11.1406 38.6333 11.1406C39.234 11.1406 39.802 10.9988 40.3068 10.748C41.2003 12.0056 41.9453 13.3404 42.5367 14.7345H30.7422C30.3688 11.9073 29.8021 9.30898 29.0618 7.08777ZM40.6098 7.36719C40.6098 8.45708 39.7232 9.34375 38.6333 9.34375C37.5434 9.34375 36.6567 8.45708 36.6567 7.36719C36.6567 6.27729 37.5434 5.39062 38.6333 5.39062C39.7232 5.39062 40.6098 6.27729 40.6098 7.36719ZM23 1.79688C24.5053 1.79688 26.1341 3.98718 27.3571 7.65594C28.0425 9.71238 28.5727 12.1147 28.9306 14.7344H19.6564C19.3736 13.5816 18.5603 12.6354 17.4907 12.1706C18.8563 5.01292 21.2153 1.79688 23 1.79688ZM15.9918 13.6563C17.0817 13.6563 17.9684 14.543 17.9684 15.6329C17.9684 16.7228 17.0817 17.6095 15.9918 17.6095C14.9019 17.6095 14.0153 16.7228 14.0153 15.6329C14.0153 14.543 14.9019 13.6563 15.9918 13.6563ZM12.3274 16.5313C12.6401 17.8065 13.6022 18.8289 14.842 19.2266C14.7719 20.468 14.7344 21.7328 14.7344 23C14.7344 25.2216 14.842 27.3952 15.0495 29.4688H2.79657C2.1363 27.4024 1.79688 25.2291 1.79688 23C1.79688 20.7823 2.13873 18.605 2.80196 16.5313H12.3274ZM5.39062 38.6328C5.39062 37.5429 6.27729 36.6562 7.36719 36.6562C8.45708 36.6562 9.34375 37.5429 9.34375 38.6328C9.34375 39.7227 8.45708 40.6094 7.36719 40.6094C6.27729 40.6094 5.39062 39.7227 5.39062 38.6328ZM26.5881 43.898C26.9451 43.4439 27.3039 42.8982 27.6579 42.242C28.7513 40.2154 29.6536 37.4203 30.282 34.125C31.9038 33.9818 33.2337 32.8089 33.6121 31.2656H42.5254C39.7479 37.8019 33.7803 42.6669 26.5881 43.898Z" fill="#A88752"/>
<path d="M7.19287 8.45068C7.43015 8.45068 7.66096 8.35545 7.82896 8.18744C7.99607 8.02033 8.09131 7.78854 8.09131 7.55225C8.09131 7.31596 7.99607 7.08506 7.82896 6.91705C7.66096 6.74994 7.43015 6.65381 7.19287 6.65381C6.95658 6.65381 6.72479 6.74994 6.55777 6.91705C6.39066 7.08506 6.29443 7.31596 6.29443 7.55225C6.29443 7.78854 6.39057 8.02033 6.55777 8.18744C6.72479 8.35545 6.95658 8.45068 7.19287 8.45068Z" fill="#A88752"/>
</g>
<defs>
<clipPath id="clip0_178_85430">
<rect width="46" height="46" fill="white"/>
</clipPath>
</defs>
</svg>
