<svg width="44" height="44" viewBox="0 0 44 44" fill="none" xmlns="http://www.w3.org/2000/svg">
<g clip-path="url(#clip0_209_5783)">
<rect x="3.45093" y="4.31372" width="36.2353" height="33.6471" fill="white"/>
<path d="M38 0H6C4.4087 0 2.88258 0.632141 1.75736 1.75736C0.632141 2.88258 0 4.4087 0 6L0 38C0 39.5913 0.632141 41.1174 1.75736 42.2426C2.88258 43.3679 4.4087 44 6 44H38C39.5913 44 41.1174 43.3679 42.2426 42.2426C43.3679 41.1174 44 39.5913 44 38V6C44 4.4087 43.3679 2.88258 42.2426 1.75736C41.1174 0.632141 39.5913 0 38 0ZM15 34.82C15.0003 34.942 14.9766 35.0629 14.9301 35.1757C14.8837 35.2885 14.8154 35.3911 14.7292 35.4775C14.6431 35.5639 14.5407 35.6324 14.428 35.6792C14.3153 35.7259 14.1945 35.75 14.0725 35.75H10.12C9.99778 35.7503 9.8767 35.7265 9.76371 35.6799C9.65073 35.6333 9.54808 35.5648 9.46165 35.4783C9.37523 35.3919 9.30674 35.2893 9.26012 35.1763C9.2135 35.0633 9.18967 34.9422 9.19 34.82V18.25C9.19 18.0033 9.28798 17.7668 9.46239 17.5924C9.6368 17.418 9.87335 17.32 10.12 17.32H14.0725C14.3187 17.3207 14.5546 17.4189 14.7285 17.5933C14.9024 17.7676 15 18.0038 15 18.25V34.82ZM12.095 15.75C11.3533 15.75 10.6283 15.5301 10.0116 15.118C9.39493 14.706 8.91428 14.1203 8.63045 13.4351C8.34662 12.7498 8.27236 11.9958 8.41706 11.2684C8.56175 10.541 8.9189 9.8728 9.44335 9.34835C9.9678 8.8239 10.636 8.46675 11.3634 8.32205C12.0908 8.17736 12.8448 8.25162 13.5301 8.53545C14.2153 8.81928 14.801 9.29993 15.213 9.91661C15.6251 10.5333 15.845 11.2583 15.845 12C15.845 12.9946 15.4499 13.9484 14.7467 14.6517C14.0434 15.3549 13.0896 15.75 12.095 15.75ZM35.66 34.885C35.6603 34.9974 35.6384 35.1087 35.5956 35.2126C35.5527 35.3165 35.4898 35.4109 35.4103 35.4903C35.3309 35.5698 35.2365 35.6327 35.1326 35.6756C35.0287 35.7184 34.9174 35.7403 34.805 35.74H30.555C30.4426 35.7403 30.3313 35.7184 30.2274 35.6756C30.1235 35.6327 30.0291 35.5698 29.9497 35.4903C29.8702 35.4109 29.8073 35.3165 29.7644 35.2126C29.7216 35.1087 29.6997 34.9974 29.7 34.885V27.1225C29.7 25.9625 30.04 22.0425 26.6675 22.0425C24.055 22.0425 23.5225 24.725 23.4175 25.93V34.895C23.4175 35.1196 23.3292 35.3352 23.1715 35.4952C23.0139 35.6552 22.7996 35.7467 22.575 35.75H18.47C18.3578 35.75 18.2468 35.7279 18.1432 35.6849C18.0396 35.6419 17.9455 35.5788 17.8663 35.4994C17.7871 35.42 17.7244 35.3257 17.6817 35.222C17.639 35.1183 17.6172 35.0072 17.6175 34.895V18.1775C17.6172 18.0653 17.639 17.9542 17.6817 17.8505C17.7244 17.7468 17.7871 17.6525 17.8663 17.5731C17.9455 17.4936 18.0396 17.4306 18.1432 17.3876C18.2468 17.3446 18.3578 17.3225 18.47 17.3225H22.575C22.8018 17.3225 23.0192 17.4126 23.1796 17.5729C23.3399 17.7333 23.43 17.9507 23.43 18.1775V19.6225C24.4 18.165 25.8375 17.045 28.905 17.045C35.7 17.045 35.655 23.39 35.655 26.875L35.66 34.885Z" fill="#02839C"/>
</g>
<defs>
<clipPath id="clip0_209_5783">
<rect width="44" height="44" fill="white"/>
</clipPath>
</defs>
</svg>
