<svg width="57" height="29" viewBox="0 0 57 29" fill="none" xmlns="http://www.w3.org/2000/svg">
<path d="M56.6233 13.4072L43.669 0.452835C43.2037 -0.0905482 42.3859 -0.153892 41.8425 0.311562C41.2991 0.776906 41.2358 1.59471 41.7012 2.13809C41.7446 2.18874 41.7918 2.23606 41.8425 2.27936L52.5816 13.0315H1.29539C0.580009 13.0315 0 13.6115 0 14.327C0 15.0425 0.580009 15.6224 1.29539 15.6224H52.5816L41.8425 26.3614C41.2991 26.8268 41.2358 27.6446 41.7012 28.188C42.1667 28.7314 42.9844 28.7947 43.5278 28.3292C43.5784 28.2858 43.6257 28.2386 43.669 28.188L56.6234 15.2336C57.1256 14.7285 57.1256 13.9125 56.6233 13.4072Z" fill="#02839C"/>
</svg>
