<svg width="39" height="39" viewBox="0 0 39 39" fill="none" xmlns="http://www.w3.org/2000/svg">
<path d="M15.9169 26.8124C15.5975 26.8117 15.2912 26.6857 15.0638 26.4614L10.1169 21.5864C9.90714 21.3561 9.79357 21.0541 9.79954 20.7426C9.80551 20.4311 9.93056 20.1337 10.149 19.9115C10.3674 19.6893 10.6626 19.5592 10.974 19.548C11.2854 19.5367 11.5892 19.6451 11.8231 19.8509L15.906 23.8728L27.1672 12.5531C27.2793 12.4364 27.4135 12.3432 27.562 12.2789C27.7105 12.2147 27.8703 12.1806 28.0321 12.1788C28.1939 12.1769 28.3545 12.2073 28.5044 12.2682C28.6543 12.329 28.7906 12.4191 28.9054 12.5332C29.0201 12.6473 29.111 12.7831 29.1727 12.9327C29.2344 13.0823 29.2657 13.2427 29.2648 13.4045C29.2638 13.5663 29.2307 13.7263 29.1673 13.8751C29.1039 14.024 29.0114 14.1587 28.8954 14.2715L16.781 26.459C16.6673 26.5718 16.5324 26.6611 16.3842 26.7217C16.2359 26.7824 16.0771 26.8132 15.9169 26.8124Z" fill="#A88752"/>
<path d="M31.6875 35.3438H7.3125C6.3428 35.3438 5.41282 34.9585 4.72714 34.2729C4.04146 33.5872 3.65625 32.6572 3.65625 31.6875V7.3125C3.65625 6.3428 4.04146 5.41282 4.72714 4.72714C5.41282 4.04146 6.3428 3.65625 7.3125 3.65625H31.6875C32.6572 3.65625 33.5872 4.04146 34.2729 4.72714C34.9585 5.41282 35.3438 6.3428 35.3438 7.3125V31.6875C35.3438 32.6572 34.9585 33.5872 34.2729 34.2729C33.5872 34.9585 32.6572 35.3438 31.6875 35.3438ZM7.3125 6.09375C6.98927 6.09375 6.67927 6.22215 6.45071 6.45071C6.22215 6.67927 6.09375 6.98927 6.09375 7.3125V31.6875C6.09375 32.0107 6.22215 32.3207 6.45071 32.5493C6.67927 32.7778 6.98927 32.9062 7.3125 32.9062H31.6875C32.0107 32.9062 32.3207 32.7778 32.5493 32.5493C32.7778 32.3207 32.9062 32.0107 32.9062 31.6875V7.3125C32.9062 6.98927 32.7778 6.67927 32.5493 6.45071C32.3207 6.22215 32.0107 6.09375 31.6875 6.09375H7.3125Z" fill="#A88752"/>
</svg>
