<svg width="125" height="73" viewBox="0 0 125 73" fill="none" xmlns="http://www.w3.org/2000/svg">
<path d="M124.21 0H0V72.4671H124.21V0Z" fill="#2F2E79"/>
<path d="M32.6743 44.3738L34.579 50.2691L40.3382 48.0697L36.9144 53.2168L42.2202 56.3685L36.0755 56.9127L36.9371 63.0121L32.6743 58.5452L28.4342 63.0121L29.2732 56.9127L23.1284 56.3685L28.4342 53.2168L25.0104 48.0697L30.7923 50.2691L32.6743 44.3738Z" fill="white"/>
<path d="M98.0212 54.9626L98.9282 57.7516L101.672 56.7312L100.062 59.1801L102.579 60.6766L99.6537 60.926L100.062 63.8283L98.0212 61.6969L96.0032 63.8283L96.4113 60.926L93.4863 60.6766L96.0032 59.1801L94.3706 56.7312L97.1369 57.7516L98.0212 54.9626Z" fill="white"/>
<path d="M81.6957 29.0913L82.58 31.9029L85.3463 30.8599L83.7137 33.3087L86.2306 34.8052L83.3056 35.0547L83.7137 37.957L81.6957 35.8256L79.655 37.957L80.0632 35.0547L77.1382 34.8052L79.655 33.3087L78.0452 30.8599L80.7888 31.9029L81.6957 29.0913Z" fill="white"/>
<path d="M98.0212 11.4053L98.9282 14.1942L101.672 13.1512L100.062 15.6L102.579 17.0965L99.6537 17.3686L100.062 20.2709L98.0212 18.1395L96.0032 20.2709L96.4113 17.3686L93.4863 17.0965L96.0032 15.6L94.3706 13.1512L97.1369 14.1942L98.0212 11.4053Z" fill="white"/>
<path d="M112.555 24.7375L113.439 27.5265L116.206 26.5061L114.573 28.955L117.09 30.4515L114.165 30.7009L114.573 33.6032L112.555 31.4718L110.537 33.6032L110.923 30.7009L107.998 30.4515L110.537 28.955L108.905 26.5061L111.648 27.5265L112.555 24.7375Z" fill="white"/>
<path d="M104.574 37.8433L105.277 39.5892L107.159 39.7252L105.708 40.9496L106.162 42.7636L104.574 41.7886L102.964 42.7636L103.418 40.9496L101.967 39.7252L103.849 39.5892L104.574 37.8433Z" fill="white"/>
<path d="M27.2319 0V10.8837H0V21.7674H27.2319V32.6737H38.1155V21.7674H65.3474V10.8837H38.1155V0H27.2319Z" fill="white"/>
<path d="M0 0V3.65057L58.0463 32.6737H65.3474V29.0231L7.30113 0H0Z" fill="white"/>
<path d="M58.0463 0L0 29.0231V32.6737H7.30113L65.3474 3.65057V0H58.0463Z" fill="white"/>
<path d="M29.4086 0V13.0604H0V19.5906H29.4086V32.6737H35.9388V19.5906H65.3474V13.0604H35.9388V0H29.4086Z" fill="#C62329"/>
<path d="M0 0V2.44883L16.915 10.9064H21.79L0 0ZM60.4724 0L38.6824 10.8837H43.5574L65.3474 0H60.4724Z" fill="#C62329"/>
<path d="M21.79 21.7676L0 32.6739H4.87498L26.665 21.7676H21.79ZM43.5801 21.7676L65.3701 32.6739V30.2251L48.455 21.7676H43.5801Z" fill="#C62329"/>
</svg>
